<svg width="510" height="510" viewBox="0 0 510 510" fill="none" xmlns="http://www.w3.org/2000/svg">
<path d="M339.773 36.6079C339.773 36.6079 264.854 14.5453 190.874 59.1601C116.893 103.775 79.1733 186.997 46.8087 253.756C14.4441 320.515 32.3859 385.927 88.4451 413.396C144.504 440.865 183.07 394.414 262.018 388.365C340.966 382.317 362.121 392.149 427.901 345.933C493.681 299.717 506.196 197.564 455.023 124.95C403.849 52.3363 339.773 36.6079 339.773 36.6079Z" fill="#079FB7"/>
<path opacity="0.7" d="M339.773 36.6079C339.773 36.6079 264.854 14.5453 190.874 59.1601C116.893 103.775 79.1733 186.997 46.8087 253.756C14.4441 320.515 32.3859 385.927 88.4451 413.396C144.504 440.865 183.07 394.414 262.018 388.365C340.966 382.317 362.121 392.149 427.901 345.933C493.681 299.717 506.196 197.564 455.023 124.95C403.849 52.3363 339.773 36.6079 339.773 36.6079Z" fill="white"/>
<path d="M465.751 229.153H56.058V248.146H465.751V229.153Z" fill="#263238"/>
<path d="M471.239 105.06H49.9794V240.72H471.239V105.06Z" fill="white"/>
<path d="M187.028 105.06V173.022H176.522C163.262 174.42 155.521 163.924 158.326 147.818C161.131 131.712 115.618 156.927 105.122 147.818C97.6867 141.382 123.921 118.116 139.884 105.06H187.028ZM393.895 141.882C401.657 160.242 483.808 109.14 465.499 138.556C447.19 167.973 428.309 187.955 469.385 179.081L471.241 178.643V105.06H432.267C413.632 114.78 388.948 130.233 393.895 141.882Z" fill="#079FB7"/>
<path opacity="0.5" d="M187.028 105.06V173.022H176.522C163.262 174.42 155.521 163.924 158.326 147.818C161.131 131.712 115.618 156.927 105.122 147.818C97.6867 141.382 123.921 118.116 139.884 105.06H187.028ZM393.895 141.882C401.657 160.242 483.808 109.14 465.499 138.556C447.19 167.973 428.309 187.955 469.385 179.081L471.241 178.643V105.06H432.267C413.632 114.78 388.948 130.233 393.895 141.882Z" fill="white"/>
<path d="M471.239 105.06H49.9794V240.72H471.239V105.06Z" stroke="#263238" stroke-width="1.02" stroke-linecap="round" stroke-linejoin="round"/>
<path d="M334.447 105.06H186.762V240.72H334.447V105.06Z" fill="white"/>
<path d="M285.172 177.479C268.985 186.129 222.238 223.879 201.675 240.719H334.458V106.732C317.118 113.791 251.033 141.351 247.391 151.979C243.189 164.219 306.164 166.259 285.172 177.479Z" fill="#079FB7"/>
<path opacity="0.5" d="M285.172 177.479C268.985 186.129 222.238 223.879 201.675 240.719H334.458V106.732C317.118 113.791 251.033 141.351 247.391 151.979C243.189 164.219 306.164 166.259 285.172 177.479Z" fill="white"/>
<path d="M334.447 105.06H186.762V240.72H334.447V105.06Z" stroke="#263238" stroke-width="1.02" stroke-linecap="round" stroke-linejoin="round"/>
<path d="M344.19 156.682C348.566 166.291 360.867 173.655 366.793 175.44C366.793 175.44 382.665 180.989 394.568 171.789C406.471 162.588 409.093 144.738 397.863 127.357C386.632 109.977 362.642 113.72 352.36 123.502C342.079 133.284 339.825 147.074 344.19 156.682ZM377.401 140.76C381.267 144.126 381.481 148.92 377.656 151.236C376.581 151.851 375.359 152.165 374.121 152.143C372.882 152.122 371.672 151.766 370.618 151.113C369.418 150.461 368.506 149.383 368.062 148.091C367.619 146.799 367.675 145.388 368.221 144.136C369.343 141.403 373.566 137.384 377.401 140.76Z" fill="white" stroke="#263238" stroke-width="1.02" stroke-miterlimit="10"/>
<path d="M352.918 124.859C351.428 129.622 350.704 130.979 348.246 133.325C345.788 135.671 344.482 139.577 344.778 141.638C345.13 144.083 345.239 146.556 345.104 149.022C345.049 150.714 345.389 152.395 346.098 153.932C346.806 155.469 347.863 156.819 349.184 157.876C351.359 159.462 353.229 161.428 354.703 163.68C356.855 166.648 356.151 167.321 359.374 168.943C362.597 170.565 368.687 173.808 368.687 173.808C368.687 173.808 375.643 176.868 378.764 175.604C381.886 174.339 385.598 169.779 388.026 168.81C390.454 167.841 391.586 170.442 394.799 165.75C398.012 161.058 398.95 157.448 400.919 155.601C402.887 153.755 403.357 147.258 400.684 144.453C397.986 141.854 396.412 138.303 396.298 134.559C395.9 129.918 394.595 127.133 389.668 125.471C384.742 123.808 381.059 119.595 379.213 118.004C377.367 116.413 372.379 116.801 369.248 118.433C366.116 120.065 363.271 117.413 359.976 118.892C358.956 119.361 357.936 119.657 357.13 119.993C356.257 120.505 355.413 121.063 354.601 121.666C353.825 122.602 353.252 123.69 352.918 124.859ZM368.646 141.78C370.686 142.168 371.818 138.425 375.419 138.343C379.019 138.261 376.918 140.271 377.459 140.791C378.298 141.513 379.008 142.372 379.56 143.331C380.175 144.117 380.588 145.041 380.764 146.024C380.705 147.697 381.207 149.341 382.192 150.695C383.344 152.266 380.774 152.378 378.53 152.837C376.286 153.296 376.123 153.113 374.368 154.439C372.614 155.765 370.105 153.48 370.105 153.48C370.105 153.48 368.575 152.929 367.096 150.318C365.617 147.707 367.177 147.258 365.851 145.136C364.525 143.015 366.596 141.332 368.646 141.78Z" fill="white" stroke="#263238" stroke-width="1.02" stroke-miterlimit="10"/>
<path d="M369.606 129.203C370.586 129.203 371.381 128.409 371.381 127.429C371.381 126.448 370.586 125.654 369.606 125.654C368.626 125.654 367.831 126.448 367.831 127.429C367.831 128.409 368.626 129.203 369.606 129.203Z" fill="white" stroke="#263238" stroke-width="1.02" stroke-miterlimit="10"/>
<path d="M358.948 132.508C359.37 132.508 359.713 132.166 359.713 131.743C359.713 131.321 359.37 130.978 358.948 130.978C358.525 130.978 358.183 131.321 358.183 131.743C358.183 132.166 358.525 132.508 358.948 132.508Z" fill="white" stroke="#263238" stroke-width="1.02" stroke-miterlimit="10"/>
<path d="M363.385 124.124C364.016 124.124 364.527 123.612 364.527 122.982C364.527 122.351 364.016 121.839 363.385 121.839C362.754 121.839 362.243 122.351 362.243 122.982C362.243 123.612 362.754 124.124 363.385 124.124Z" fill="white" stroke="#263238" stroke-width="1.02" stroke-miterlimit="10"/>
<path d="M357.928 140.627C357.928 141.031 357.808 141.425 357.584 141.761C357.36 142.096 357.041 142.358 356.669 142.512C356.296 142.667 355.886 142.707 355.49 142.628C355.094 142.549 354.731 142.355 354.445 142.07C354.16 141.785 353.966 141.421 353.887 141.025C353.808 140.63 353.849 140.219 354.003 139.847C354.158 139.474 354.419 139.155 354.755 138.931C355.09 138.707 355.484 138.587 355.888 138.587C356.429 138.587 356.948 138.802 357.33 139.185C357.713 139.567 357.928 140.086 357.928 140.627Z" fill="white" stroke="#263238" stroke-width="1.02" stroke-miterlimit="10"/>
<path d="M381.541 134.161C381.541 134.437 381.459 134.707 381.305 134.937C381.152 135.167 380.933 135.346 380.678 135.452C380.423 135.558 380.142 135.585 379.871 135.531C379.6 135.477 379.351 135.344 379.155 135.149C378.96 134.954 378.827 134.705 378.773 134.433C378.719 134.162 378.746 133.881 378.852 133.626C378.958 133.371 379.137 133.153 379.367 132.999C379.597 132.845 379.867 132.763 380.143 132.763C380.327 132.762 380.509 132.797 380.68 132.867C380.85 132.937 381.004 133.04 381.134 133.17C381.264 133.3 381.367 133.454 381.437 133.624C381.507 133.795 381.542 133.977 381.541 134.161Z" fill="white" stroke="#263238" stroke-width="1.02" stroke-miterlimit="10"/>
<path d="M381.162 126.919C381.793 126.919 382.304 126.407 382.304 125.776C382.304 125.145 381.793 124.634 381.162 124.634C380.531 124.634 380.019 125.145 380.019 125.776C380.019 126.407 380.531 126.919 381.162 126.919Z" fill="white" stroke="#263238" stroke-width="1.02" stroke-miterlimit="10"/>
<path d="M391.679 135.425C391.679 135.752 391.582 136.072 391.4 136.343C391.219 136.615 390.961 136.827 390.659 136.952C390.357 137.077 390.025 137.11 389.704 137.046C389.384 136.982 389.089 136.825 388.858 136.594C388.627 136.363 388.47 136.068 388.406 135.748C388.342 135.427 388.375 135.095 388.5 134.793C388.625 134.491 388.837 134.233 389.108 134.051C389.38 133.87 389.7 133.773 390.026 133.773C390.464 133.776 390.883 133.95 391.192 134.26C391.501 134.569 391.676 134.988 391.679 135.425Z" fill="white" stroke="#263238" stroke-width="1.02" stroke-miterlimit="10"/>
<path d="M393.72 149.389C393.72 149.665 393.638 149.936 393.485 150.165C393.331 150.395 393.113 150.574 392.857 150.68C392.602 150.786 392.321 150.813 392.05 150.76C391.779 150.706 391.53 150.573 391.335 150.377C391.139 150.182 391.006 149.933 390.952 149.662C390.898 149.391 390.926 149.11 391.032 148.854C391.137 148.599 391.317 148.381 391.546 148.227C391.776 148.074 392.046 147.992 392.323 147.992C392.693 147.992 393.049 148.139 393.311 148.401C393.573 148.663 393.72 149.018 393.72 149.389Z" fill="white" stroke="#263238" stroke-width="1.02" stroke-miterlimit="10"/>
<path d="M385.1 163.73C385.102 164.033 385.014 164.33 384.847 164.583C384.681 164.836 384.442 165.034 384.163 165.151C383.883 165.268 383.576 165.3 383.278 165.242C382.981 165.184 382.707 165.039 382.492 164.826C382.277 164.612 382.13 164.34 382.07 164.043C382.011 163.746 382.04 163.437 382.156 163.157C382.271 162.877 382.467 162.637 382.719 162.469C382.971 162.3 383.267 162.21 383.57 162.21C383.974 162.21 384.362 162.37 384.649 162.655C384.935 162.94 385.098 163.326 385.1 163.73Z" fill="white" stroke="#263238" stroke-width="1.02" stroke-miterlimit="10"/>
<path d="M367.323 168.3C368.584 168.3 369.607 167.277 369.607 166.015C369.607 164.753 368.584 163.73 367.323 163.73C366.061 163.73 365.038 164.753 365.038 166.015C365.038 167.277 366.061 168.3 367.323 168.3Z" fill="white" stroke="#263238" stroke-width="1.02" stroke-miterlimit="10"/>
<path d="M358.815 153.327C359.446 153.327 359.957 152.815 359.957 152.184C359.957 151.553 359.446 151.042 358.815 151.042C358.184 151.042 357.673 151.553 357.673 152.184C357.673 152.815 358.184 153.327 358.815 153.327Z" fill="white" stroke="#263238" stroke-width="1.02" stroke-miterlimit="10"/>
<path d="M371.135 157.896C371.135 158.098 371.076 158.295 370.964 158.463C370.851 158.63 370.692 158.761 370.506 158.838C370.319 158.916 370.114 158.936 369.916 158.896C369.719 158.857 369.537 158.76 369.394 158.617C369.252 158.475 369.154 158.293 369.115 158.095C369.076 157.897 369.096 157.692 369.173 157.506C369.25 157.319 369.381 157.16 369.549 157.048C369.717 156.936 369.914 156.876 370.115 156.876C370.386 156.876 370.645 156.983 370.837 157.175C371.028 157.366 371.135 157.625 371.135 157.896Z" fill="white" stroke="#263238" stroke-width="1.02" stroke-miterlimit="10"/>
<path d="M351.073 146.88C351.073 147.055 351.021 147.227 350.923 147.373C350.826 147.519 350.687 147.632 350.525 147.699C350.363 147.767 350.184 147.784 350.012 147.75C349.84 147.716 349.682 147.631 349.558 147.507C349.434 147.383 349.349 147.225 349.315 147.053C349.281 146.881 349.298 146.702 349.365 146.54C349.433 146.378 349.546 146.239 349.692 146.142C349.838 146.044 350.01 145.992 350.185 145.992C350.421 145.992 350.646 146.086 350.813 146.252C350.979 146.419 351.073 146.644 351.073 146.88Z" fill="white" stroke="#263238" stroke-width="1.02" stroke-miterlimit="10"/>
<path d="M358.182 123.879C358.182 124.03 358.137 124.178 358.053 124.304C357.969 124.43 357.85 124.528 357.71 124.585C357.57 124.643 357.416 124.659 357.268 124.629C357.119 124.6 356.983 124.527 356.876 124.42C356.769 124.313 356.696 124.176 356.667 124.028C356.637 123.88 356.652 123.726 356.71 123.586C356.768 123.446 356.866 123.327 356.992 123.243C357.118 123.159 357.266 123.114 357.417 123.114C357.518 123.112 357.618 123.131 357.711 123.169C357.805 123.207 357.89 123.263 357.961 123.335C358.032 123.406 358.089 123.491 358.127 123.584C358.165 123.678 358.183 123.778 358.182 123.879Z" fill="white" stroke="#263238" stroke-width="1.02" stroke-miterlimit="10"/>
<path d="M367.577 134.16C367.577 134.243 367.56 134.326 367.528 134.402C367.497 134.479 367.45 134.549 367.391 134.607C367.333 134.666 367.263 134.713 367.186 134.745C367.109 134.776 367.027 134.793 366.944 134.793C366.789 134.773 366.646 134.697 366.543 134.58C366.439 134.463 366.382 134.312 366.382 134.155C366.382 133.999 366.439 133.848 366.543 133.73C366.646 133.613 366.789 133.537 366.944 133.518C367.113 133.52 367.274 133.589 367.392 133.709C367.51 133.83 367.577 133.992 367.577 134.16Z" fill="white" stroke="#263238" stroke-width="1.02" stroke-miterlimit="10"/>
<path d="M386.111 143.045C386.111 143.22 386.059 143.392 385.962 143.538C385.864 143.684 385.726 143.798 385.563 143.865C385.401 143.932 385.223 143.949 385.051 143.915C384.879 143.881 384.72 143.796 384.596 143.672C384.472 143.548 384.388 143.39 384.353 143.218C384.319 143.046 384.337 142.867 384.404 142.705C384.471 142.543 384.585 142.405 384.731 142.307C384.877 142.21 385.048 142.157 385.224 142.157C385.34 142.157 385.456 142.18 385.563 142.225C385.671 142.27 385.769 142.335 385.851 142.417C385.934 142.5 385.999 142.598 386.044 142.705C386.088 142.813 386.111 142.928 386.111 143.045Z" fill="white" stroke="#263238" stroke-width="1.02" stroke-miterlimit="10"/>
<path d="M394.496 157.386C394.498 157.689 394.41 157.986 394.243 158.239C394.076 158.492 393.838 158.689 393.558 158.807C393.279 158.924 392.971 158.956 392.673 158.898C392.376 158.84 392.102 158.695 391.887 158.481C391.672 158.268 391.526 157.995 391.466 157.698C391.406 157.401 391.436 157.093 391.551 156.813C391.667 156.533 391.863 156.293 392.114 156.125C392.366 155.956 392.662 155.866 392.966 155.866C393.166 155.865 393.365 155.903 393.55 155.979C393.736 156.055 393.905 156.166 394.047 156.308C394.189 156.449 394.302 156.617 394.379 156.802C394.456 156.987 394.496 157.185 394.496 157.386Z" fill="white" stroke="#263238" stroke-width="1.02" stroke-miterlimit="10"/>
<path d="M364.272 144.84C364.272 145.117 364.19 145.387 364.036 145.617C363.882 145.847 363.663 146.027 363.407 146.132C363.151 146.237 362.87 146.265 362.598 146.21C362.327 146.155 362.078 146.021 361.883 145.825C361.688 145.628 361.556 145.378 361.503 145.106C361.45 144.835 361.479 144.553 361.587 144.298C361.694 144.043 361.875 143.825 362.106 143.673C362.337 143.521 362.608 143.441 362.885 143.443C363.068 143.443 363.249 143.479 363.418 143.549C363.587 143.62 363.74 143.723 363.869 143.853C363.998 143.982 364.1 144.137 364.169 144.306C364.239 144.476 364.273 144.657 364.272 144.84Z" fill="white" stroke="#263238" stroke-width="1.02" stroke-miterlimit="10"/>
<path d="M357.927 157.386C357.927 157.587 357.867 157.785 357.755 157.952C357.643 158.12 357.483 158.251 357.297 158.328C357.111 158.405 356.906 158.425 356.708 158.386C356.51 158.347 356.328 158.25 356.185 158.107C356.043 157.964 355.946 157.783 355.906 157.585C355.867 157.387 355.887 157.182 355.964 156.995C356.042 156.809 356.172 156.65 356.34 156.538C356.508 156.426 356.705 156.366 356.907 156.366C357.177 156.366 357.437 156.473 357.628 156.664C357.819 156.856 357.927 157.115 357.927 157.386Z" fill="white" stroke="#263238" stroke-width="1.02" stroke-miterlimit="10"/>
<path d="M352.347 138.343C352.349 138.595 352.276 138.843 352.137 139.054C351.998 139.265 351.8 139.43 351.567 139.528C351.334 139.626 351.078 139.653 350.83 139.604C350.582 139.556 350.353 139.436 350.174 139.258C349.995 139.08 349.872 138.853 349.822 138.605C349.772 138.358 349.797 138.101 349.893 137.867C349.989 137.634 350.153 137.434 350.363 137.293C350.572 137.153 350.819 137.078 351.072 137.078C351.408 137.078 351.731 137.211 351.97 137.448C352.209 137.684 352.344 138.006 352.347 138.343Z" fill="white" stroke="#263238" stroke-width="1.02" stroke-miterlimit="10"/>
<path d="M375.198 122.094C375.2 122.245 375.157 122.394 375.074 122.521C374.991 122.649 374.872 122.748 374.733 122.808C374.593 122.867 374.439 122.884 374.29 122.855C374.141 122.827 374.003 122.755 373.895 122.648C373.787 122.542 373.714 122.406 373.683 122.257C373.653 122.108 373.667 121.954 373.725 121.814C373.783 121.673 373.881 121.553 374.007 121.469C374.133 121.384 374.281 121.339 374.433 121.339C374.634 121.339 374.827 121.418 374.97 121.559C375.113 121.701 375.195 121.893 375.198 122.094Z" fill="white" stroke="#263238" stroke-width="1.02" stroke-miterlimit="10"/>
<path d="M116.41 153.867C116 153.828 115.61 153.672 115.285 153.42C114.96 153.167 114.714 152.827 114.574 152.439C113.354 149.064 111.192 146.108 108.344 143.923C105.497 141.737 102.083 140.414 98.5063 140.108C94.9298 139.802 91.3406 140.527 88.1633 142.197C84.9861 143.867 82.3537 146.413 80.5778 149.532C80.3774 149.891 80.0792 150.184 79.7179 150.379C79.3567 150.575 78.9473 150.663 78.5378 150.634L76.1816 150.43C75.8041 150.395 75.4242 150.461 75.0804 150.621C74.7366 150.781 74.4411 151.028 74.2237 151.339C74.0063 151.649 73.8748 152.012 73.8425 152.39C73.8102 152.767 73.8782 153.147 74.0396 153.49L78.2522 162.884C78.5888 163.649 78.9254 164.414 79.211 165.199C80.5053 168.835 82.8875 171.983 86.0339 174.218C89.1804 176.452 92.9384 177.663 96.7972 177.686C100.656 177.709 104.429 176.544 107.602 174.348C110.775 172.153 113.195 169.033 114.534 165.414C115.186 163.629 115.88 161.844 116.686 160.12L118.165 156.958C118.321 156.644 118.398 156.296 118.389 155.945C118.379 155.594 118.283 155.251 118.11 154.946C117.937 154.64 117.691 154.382 117.395 154.194C117.098 154.006 116.76 153.894 116.41 153.867Z" fill="white" stroke="#263238" stroke-width="1.02" stroke-miterlimit="10"/>
<path d="M116.415 153.867C116.005 153.827 115.615 153.672 115.289 153.419C114.964 153.166 114.718 152.826 114.579 152.439C114.104 151.133 113.485 149.884 112.732 148.716L109.142 157.774C103.131 164.336 96.7304 170.532 89.9763 176.327C92.1812 177.199 94.5311 177.645 96.9021 177.643H97.6977C103.715 173.828 109.415 169.533 114.742 164.801C115.344 163.21 115.956 161.629 116.68 160.099L118.159 156.937C118.311 156.624 118.384 156.28 118.373 155.932C118.362 155.585 118.266 155.245 118.095 154.943C117.923 154.641 117.68 154.385 117.388 154.197C117.095 154.01 116.761 153.897 116.415 153.867Z" fill="white" stroke="#263238" stroke-width="1.02" stroke-miterlimit="10"/>
<path d="M96.9202 167.076C112.339 167.076 124.838 154.577 124.838 139.159C124.838 123.74 112.339 111.241 96.9202 111.241C81.5018 111.241 69.0028 123.74 69.0028 139.159C69.0028 154.577 81.5018 167.076 96.9202 167.076Z" fill="white" stroke="#263238" stroke-width="1.02" stroke-miterlimit="10"/>
<path d="M96.9198 163.353C110.282 163.353 121.114 152.521 121.114 139.159C121.114 125.796 110.282 114.964 96.9198 114.964C83.5576 114.964 72.7254 125.796 72.7254 139.159C72.7254 152.521 83.5576 163.353 96.9198 163.353Z" fill="white" stroke="#263238" stroke-width="1.02" stroke-miterlimit="10"/>
<path d="M96.9202 157.947C107.297 157.947 115.709 149.535 115.709 139.158C115.709 128.782 107.297 120.37 96.9202 120.37C86.5437 120.37 78.1318 128.782 78.1318 139.158C78.1318 149.535 86.5437 157.947 96.9202 157.947Z" fill="white" stroke="#263238" stroke-width="1.02" stroke-miterlimit="10"/>
<path d="M84.9841 126.061L62.0239 114.433L60.1777 120.115L81.9037 131.437C82.4265 131.795 83.045 131.986 83.6785 131.988C84.4152 132.042 85.1466 131.828 85.738 131.386C86.3293 130.943 86.7407 130.302 86.896 129.58C87.0514 128.857 86.9403 128.103 86.5833 127.457C86.2263 126.81 85.6474 126.315 84.9535 126.061H84.9841Z" fill="white" stroke="#263238" stroke-width="1.02" stroke-miterlimit="10"/>
<path d="M63.3095 117.015C63.3095 117.62 63.13 118.212 62.7938 118.715C62.4575 119.218 61.9796 119.61 61.4205 119.842C60.8613 120.073 60.2461 120.134 59.6525 120.016C59.0589 119.898 58.5137 119.606 58.0857 119.178C57.6578 118.751 57.3663 118.205 57.2483 117.612C57.1302 117.018 57.1908 116.403 57.4224 115.844C57.654 115.285 58.0462 114.807 58.5494 114.47C59.0526 114.134 59.6442 113.955 60.2495 113.955C61.061 113.955 61.8393 114.277 62.4132 114.851C62.9871 115.425 63.3095 116.203 63.3095 117.015Z" fill="white" stroke="#263238" stroke-width="1.02" stroke-miterlimit="10"/>
<path d="M210.111 122.226H271.321" stroke="#263238" stroke-width="1.02" stroke-miterlimit="10"/>
<path d="M288.578 122.226H314.211" stroke="#263238" stroke-width="1.02" stroke-miterlimit="10"/>
<path d="M210.111 132.682H271.321" stroke="#263238" stroke-width="1.02" stroke-miterlimit="10"/>
<path d="M288.578 132.682H314.211" stroke="#263238" stroke-width="1.02" stroke-miterlimit="10"/>
<path d="M210.111 143.147H271.321" stroke="#263238" stroke-width="1.02" stroke-miterlimit="10"/>
<path d="M288.578 143.147H314.211" stroke="#263238" stroke-width="1.02" stroke-miterlimit="10"/>
<path d="M210.111 153.612H271.321" stroke="#263238" stroke-width="1.02" stroke-miterlimit="10"/>
<path d="M288.578 153.612H314.211" stroke="#263238" stroke-width="1.02" stroke-miterlimit="10"/>
<path d="M210.111 164.077H271.321" stroke="#263238" stroke-width="1.02" stroke-miterlimit="10"/>
<path d="M288.578 164.077H314.211" stroke="#263238" stroke-width="1.02" stroke-miterlimit="10"/>
<path d="M210.111 185.517H271.321" stroke="#263238" stroke-width="1.02" stroke-miterlimit="10"/>
<path d="M288.578 185.517H314.211" stroke="#263238" stroke-width="1.02" stroke-miterlimit="10"/>
<path d="M210.111 195.983H271.321" stroke="#263238" stroke-width="1.02" stroke-miterlimit="10"/>
<path d="M288.578 195.983H314.211" stroke="#263238" stroke-width="1.02" stroke-miterlimit="10"/>
<path d="M210.111 206.448H271.321" stroke="#263238" stroke-width="1.02" stroke-miterlimit="10"/>
<path d="M288.578 206.448H314.211" stroke="#263238" stroke-width="1.02" stroke-miterlimit="10"/>
<path d="M210.111 216.913H271.321" stroke="#263238" stroke-width="1.02" stroke-miterlimit="10"/>
<path d="M288.578 216.913H314.211" stroke="#263238" stroke-width="1.02" stroke-miterlimit="10"/>
<path d="M210.111 227.368H271.321" stroke="#263238" stroke-width="1.02" stroke-miterlimit="10"/>
<path d="M288.578 227.368H314.211" stroke="#263238" stroke-width="1.02" stroke-miterlimit="10"/>
<path d="M350.309 185.517H411.52" stroke="#263238" stroke-width="1.02" stroke-miterlimit="10"/>
<path d="M428.777 185.517H454.409" stroke="#263238" stroke-width="1.02" stroke-miterlimit="10"/>
<path d="M350.309 195.983H411.52" stroke="#263238" stroke-width="1.02" stroke-miterlimit="10"/>
<path d="M428.777 195.983H454.409" stroke="#263238" stroke-width="1.02" stroke-miterlimit="10"/>
<path d="M350.309 206.448H411.52" stroke="#263238" stroke-width="1.02" stroke-miterlimit="10"/>
<path d="M428.777 206.448H454.409" stroke="#263238" stroke-width="1.02" stroke-miterlimit="10"/>
<path d="M350.309 216.913H411.52" stroke="#263238" stroke-width="1.02" stroke-miterlimit="10"/>
<path d="M428.777 216.913H454.409" stroke="#263238" stroke-width="1.02" stroke-miterlimit="10"/>
<path d="M350.309 227.368H411.52" stroke="#263238" stroke-width="1.02" stroke-miterlimit="10"/>
<path d="M428.777 227.368H454.409" stroke="#263238" stroke-width="1.02" stroke-miterlimit="10"/>
<path d="M64.1577 186.568H125.358" stroke="#263238" stroke-width="1.02" stroke-miterlimit="10"/>
<path d="M142.625 186.568H168.258" stroke="#263238" stroke-width="1.02" stroke-miterlimit="10"/>
<path d="M64.1577 197.033H125.358" stroke="#263238" stroke-width="1.02" stroke-miterlimit="10"/>
<path d="M142.625 197.033H168.258" stroke="#263238" stroke-width="1.02" stroke-miterlimit="10"/>
<path d="M64.1577 207.499H125.358" stroke="#263238" stroke-width="1.02" stroke-miterlimit="10"/>
<path d="M142.625 207.499H168.258" stroke="#263238" stroke-width="1.02" stroke-miterlimit="10"/>
<path d="M64.1577 217.954H125.358" stroke="#263238" stroke-width="1.02" stroke-miterlimit="10"/>
<path d="M142.625 217.954H168.258" stroke="#263238" stroke-width="1.02" stroke-miterlimit="10"/>
<path d="M64.1577 228.419H125.358" stroke="#263238" stroke-width="1.02" stroke-miterlimit="10"/>
<path d="M142.625 228.419H168.258" stroke="#263238" stroke-width="1.02" stroke-miterlimit="10"/>
<path d="M102.408 284.58C102.408 284.58 102.408 280.653 96.9204 275.166C91.4328 269.678 87.8934 266.537 87.8934 266.537C87.8934 266.537 85.1496 275.564 90.2496 281.051C94.0009 284.912 98.0678 288.454 102.408 291.639V284.58Z" fill="#079FB7"/>
<path d="M94.4415 309.061C94.4415 309.061 94.4415 305.144 88.9437 299.657C83.4459 294.169 79.9269 291.027 79.9269 291.027C79.9269 291.027 77.1831 300.044 82.2831 305.532C86.0315 309.396 90.0987 312.938 94.4415 316.119V309.061Z" fill="#079FB7"/>
<path d="M102.061 291.241C102.061 291.241 102.469 287.345 108.508 282.469C114.546 277.594 118.392 274.84 118.392 274.84C118.392 274.84 120.166 284.101 114.516 289.018C110.383 292.467 105.968 295.561 101.317 298.269L102.061 291.241Z" fill="#079FB7"/>
<path d="M92.4312 320.168C92.4312 320.168 93.2573 316.333 99.7752 312.11C106.293 307.887 110.404 305.572 110.404 305.572C110.404 305.572 111.179 314.956 105.059 319.26C100.585 322.254 95.8658 324.864 90.9521 327.063L92.4312 320.168Z" fill="#079FB7"/>
<path d="M94.2488 351.696C94.2488 351.696 94.2488 347.769 99.7364 342.282C105.224 336.794 108.753 333.663 108.753 333.663C108.753 333.663 111.497 342.679 106.397 348.167C102.651 352.03 98.587 355.571 94.2488 358.755V351.696Z" fill="#079FB7"/>
<path d="M94.156 359.388C94.156 359.388 94.7068 355.512 90.076 349.3C85.4452 343.088 82.375 339.477 82.375 339.477C82.375 339.477 78.3766 348.015 82.6402 354.165C85.7999 358.533 89.3211 362.627 93.1666 366.405L94.156 359.388Z" fill="#079FB7"/>
<path d="M88.7403 382.195C88.7403 382.195 88.7403 378.278 94.2279 372.79C99.7155 367.303 103.245 364.161 103.245 364.161C103.245 364.161 105.988 373.178 100.899 378.666C97.1503 382.53 93.0832 386.072 88.7403 389.253V382.195Z" fill="#079FB7"/>
<path d="M92.4016 402.9C92.4016 402.9 91.3816 399.106 95.329 392.405C99.2764 385.703 101.867 381.776 101.867 381.776C101.867 381.776 106.814 389.804 103.275 396.403C99.7354 403.002 93.1972 408.174 93.1972 408.174L92.4016 402.9Z" fill="#079FB7"/>
<path d="M102.899 283.56C102.623 287.644 102.123 291.71 101.399 295.739C99.2269 306.959 93.8005 314.18 91.6381 324.299C89.4757 334.417 95.7181 347.463 94.0249 360.478C92.3317 373.493 87.2929 380.715 88.7413 389.395C90.1897 398.075 95.8813 425.34 95.8813 425.34" stroke="#263238" stroke-width="1.02" stroke-linecap="round" stroke-linejoin="round"/>
<path d="M102.011 293.852L107.917 289.313" stroke="#263238" stroke-width="1.02" stroke-linecap="round" stroke-linejoin="round"/>
<path d="M102.274 288.62L99.806 284.223" stroke="#263238" stroke-width="1.02" stroke-linecap="round" stroke-linejoin="round"/>
<path d="M91.9637 323.84C91.9637 323.84 96.9107 320.127 102.011 316.415" stroke="#263238" stroke-width="1.02" stroke-linecap="round" stroke-linejoin="round"/>
<path d="M94.4406 316.109C91.9826 311.339 89.047 306.832 85.6788 302.655" stroke="#263238" stroke-width="1.02" stroke-linecap="round" stroke-linejoin="round"/>
<path d="M94.4418 357.276C97.2749 352.06 100.852 347.284 105.06 343.098" stroke="#263238" stroke-width="1.02" stroke-linecap="round" stroke-linejoin="round"/>
<path d="M93.4734 362.774C91.9754 359.229 90.1806 355.817 88.1082 352.574C85.2216 348.31 84.8136 347.759 84.8136 347.759" stroke="#263238" stroke-width="1.02" stroke-linecap="round" stroke-linejoin="round"/>
<path d="M88.7403 389.406C89.998 386.29 91.488 383.272 93.1977 380.379C94.9001 377.705 96.8209 375.177 98.9403 372.821" stroke="#263238" stroke-width="1.02" stroke-linecap="round" stroke-linejoin="round"/>
<path d="M92.8201 410.611C93.3354 407.298 94.3068 404.071 95.7067 401.023C97.7467 397.025 100.113 391.843 101.072 389.742" stroke="#263238" stroke-width="1.02" stroke-linecap="round" stroke-linejoin="round"/>
<path d="M57.6092 336.947C57.6092 336.947 57.1808 334.489 60.0266 330.45C62.8724 326.41 64.7492 324.064 64.7492 324.064C64.7492 324.064 67.4522 329.419 64.8512 333.418C62.9196 336.247 60.7529 338.908 58.3742 341.374L57.6092 336.947Z" fill="#079FB7"/>
<path d="M65.2794 351.441C65.2794 351.441 64.8612 348.983 67.707 344.943C70.5528 340.904 72.4194 338.548 72.4194 338.548C72.4194 338.548 75.1224 343.913 72.5214 347.901C70.5884 350.733 68.4219 353.398 66.0444 355.868L65.2794 351.441Z" fill="#079FB7"/>
<path d="M58.5476 341.099C58.5476 341.099 57.8642 338.702 53.5496 336.294C49.235 333.887 46.532 332.582 46.532 332.582C46.532 332.582 46.4198 338.579 50.4998 341.058C53.4672 342.768 56.5719 344.229 59.7818 345.423L58.5476 341.099Z" fill="#079FB7"/>
<path d="M67.7291 358.183C67.7291 358.183 66.7907 355.868 62.2211 353.94C57.6515 352.012 54.8465 350.982 54.8465 350.982C54.8465 350.982 55.3667 356.959 59.6813 358.989C62.8122 360.378 66.0534 361.504 69.3713 362.355L67.7291 358.183Z" fill="#079FB7"/>
<path d="M70.0132 378.156C70.0132 378.156 69.5848 375.697 65.5456 372.852C61.5064 370.006 58.9564 368.425 58.9564 368.425C58.9564 368.425 58.2118 374.371 62.0164 377.258C64.7855 379.276 67.7199 381.057 70.7884 382.582L70.0132 378.156Z" fill="#079FB7"/>
<path d="M70.9112 382.969C70.9112 382.969 70.136 380.603 72.38 376.197C74.624 371.79 76.1438 369.24 76.1438 369.24C76.1438 369.24 79.5812 374.167 77.5718 378.492C76.0614 381.564 74.2975 384.505 72.2984 387.284L70.9112 382.969Z" fill="#079FB7"/>
<path d="M77.7941 402.809C77.7941 402.809 78.0797 400.33 81.9455 397.25C85.8113 394.17 88.2797 392.456 88.2797 392.456C88.2797 392.456 89.3609 398.352 85.7399 401.452C83.0883 403.623 80.2599 405.568 77.2841 407.266L77.7941 402.809Z" fill="#079FB7"/>
<path d="M76.7728 396.688C76.7728 396.688 76.3444 394.23 72.3052 391.384C68.266 388.538 65.716 386.947 65.716 386.947C65.716 386.947 64.9714 392.904 68.776 395.79C71.548 397.804 74.482 399.585 77.548 401.115L76.7728 396.688Z" fill="#079FB7"/>
<path d="M76.7226 410.041C76.7226 410.041 76.9266 407.552 73.7442 403.778C70.5618 400.004 68.4912 397.801 68.4912 397.801C68.4912 397.801 66.2676 403.37 69.2052 407.134C71.3756 409.783 73.7639 412.247 76.3452 414.498L76.7226 410.041Z" fill="#079FB7"/>
<path d="M57.1914 336.376C57.8043 338.906 58.5603 341.399 59.4558 343.843C62.0262 350.636 66.2184 354.583 68.6358 360.703C71.0532 366.823 68.6358 375.667 71.0634 383.643C73.491 391.619 77.52 395.608 77.52 401.207C77.52 406.807 74.9598 423.301 74.9598 423.301" stroke="#263238" stroke-width="1.02" stroke-linecap="round" stroke-linejoin="round"/>
<path d="M58.8648 342.731L54.6624 340.517" stroke="#263238" stroke-width="1.02" stroke-linecap="round" stroke-linejoin="round"/>
<path d="M58.1298 339.477L59.2008 336.447" stroke="#263238" stroke-width="1.02" stroke-linecap="round" stroke-linejoin="round"/>
<path d="M68.4223 360.437C68.4223 360.437 64.9135 358.652 61.2823 356.878" stroke="#263238" stroke-width="1.02" stroke-linecap="round" stroke-linejoin="round"/>
<path d="M66.0232 355.869C67.0605 352.607 68.4276 349.459 70.1032 346.474" stroke="#263238" stroke-width="1.02" stroke-linecap="round" stroke-linejoin="round"/>
<path d="M70.4916 381.674C68.1606 378.716 65.4118 376.111 62.3316 373.943" stroke="#263238" stroke-width="1.02" stroke-linecap="round" stroke-linejoin="round"/>
<path d="M71.6958 385.02C72.2585 382.64 73.0159 380.31 73.9602 378.053C75.3066 375.065 75.5004 374.677 75.5004 374.677" stroke="#263238" stroke-width="1.02" stroke-linecap="round" stroke-linejoin="round"/>
<path d="M77.3684 405.45C78.7348 403.757 80.2468 402.187 81.887 400.758C82.9333 399.989 83.9157 399.136 84.8246 398.208" stroke="#263238" stroke-width="1.02" stroke-linecap="round" stroke-linejoin="round"/>
<path d="M77.5211 401.207C76.3942 399.391 75.1327 397.663 73.7471 396.036C72.3782 394.557 70.8908 393.192 69.2999 391.956" stroke="#263238" stroke-width="1.02" stroke-linecap="round" stroke-linejoin="round"/>
<path d="M76.347 414.529C76.1972 412.631 75.546 410.808 74.46 409.245C72.7362 406.96 70.6962 403.941 69.87 402.748" stroke="#263238" stroke-width="1.02" stroke-linecap="round" stroke-linejoin="round"/>
<path d="M268.454 163.2C268.454 163.2 296.606 190.403 297.871 204C299.135 217.597 278.256 228.674 284.274 233.101C290.292 237.527 306.714 249.237 300.4 259.355C294.086 269.474 290.914 272.014 293.128 274.227C295.341 276.44 300.716 278.307 300.4 283.713C300.084 289.119 293.76 293.76 293.76 293.76H193.8C193.8 293.76 188.425 294.076 189.057 286.487C189.689 278.899 200.44 274.788 198.543 269.086C196.646 263.384 182.723 258.968 182.723 247.574C182.723 236.181 199.175 231.448 201.705 226.073C204.235 220.697 193.484 217.209 191.27 210.253C189.057 203.296 200.45 191.27 207.397 184.946C214.343 178.622 242.199 160.273 253.297 159.64C264.394 159.008 268.454 163.2 268.454 163.2Z" fill="#263238"/>
<path d="M276.005 170.565C276.005 170.565 291.305 197.299 288.888 207.795C286.47 218.291 270.273 230.235 276.474 238.344C282.676 246.453 291.774 249.799 287.939 259.825C285.661 265.824 282.258 271.332 277.912 276.053" stroke="#858585" stroke-width="1.02" stroke-linecap="round" stroke-linejoin="round"/>
<path d="M207.745 207.326C207.745 207.326 217.293 222.116 214.885 226.41C212.478 230.704 198.657 235.957 200.605 246.932C202.554 257.907 222.566 275.094 222.566 277.012" stroke="#858585" stroke-width="1.02" stroke-linecap="round" stroke-linejoin="round"/>
<path d="M268.454 163.2C268.454 163.2 296.606 190.403 297.871 204C299.135 217.597 278.256 228.674 284.274 233.101C290.292 237.527 306.714 249.237 300.4 259.355C294.086 269.474 290.914 272.014 293.128 274.227C295.341 276.44 300.716 278.307 300.4 283.713C300.084 289.119 293.76 293.76 293.76 293.76H193.8C193.8 293.76 188.425 294.076 189.057 286.487C189.689 278.899 200.44 274.788 198.543 269.086C196.646 263.384 182.723 258.968 182.723 247.574C182.723 236.181 199.175 231.448 201.705 226.073C204.235 220.697 193.484 217.209 191.27 210.253C189.057 203.296 200.45 191.27 207.397 184.946C214.343 178.622 242.199 160.273 253.297 159.64C264.394 159.008 268.454 163.2 268.454 163.2Z" stroke="#263238" stroke-width="1.02" stroke-linecap="round" stroke-linejoin="round"/>
<path d="M304.596 278.735C304.596 278.735 342.846 338.405 348.456 345.545C354.066 352.685 347.946 364.415 339.276 370.535C330.606 376.655 316.091 371.311 308.563 363.528C301.036 355.745 293.376 337.385 293.376 337.385L304.596 278.735Z" fill="white" stroke="#263238" stroke-width="1.02" stroke-linecap="round" stroke-linejoin="round"/>
<path d="M240.334 258.846C240.334 258.846 204.634 269.556 193.414 273.636C182.194 277.716 179.134 278.226 179.134 282.306C179.134 284.682 187.651 330.898 186.784 370.536C186.162 399.177 176.074 425.106 176.074 425.106H306.124C306.124 425.106 295.455 400.779 295.414 371.556C295.353 330.603 305.787 280.531 304.594 278.736C302.554 275.676 244.924 258.336 240.334 258.846Z" fill="white" stroke="#263238" stroke-width="1.02" stroke-linecap="round" stroke-linejoin="round"/>
<path d="M295.799 381.184C291.127 377.543 285.058 371.556 282.151 363.396C277.633 350.737 274.307 282.816 273.614 267.516C271.196 266.781 268.769 266.047 266.382 265.343L267.402 329.226H222.012L218.044 265.669C215.627 266.414 213.189 267.179 210.802 267.934C210.853 280.837 210.853 341.027 207.222 358.296C204.437 371.556 192.84 380.501 185.802 384.816C184.096 398.554 180.856 412.058 176.143 425.075H306.193C300.537 411.052 297.033 396.255 295.799 381.184Z" fill="#263238"/>
<path d="M212.256 267.465L210.767 267.934C210.818 280.837 210.818 341.027 207.187 358.296C206.983 359.255 206.728 360.173 206.442 361.08V425.106H212.256V267.465Z" fill="#424242"/>
<path d="M236.784 329.226H230.97V425.106H236.784V329.226Z" fill="#424242"/>
<path d="M181.908 405.675V425.055H187.682V383.52C186.988 383.979 186.315 384.418 185.693 384.805C184.838 391.829 183.574 398.798 181.908 405.675Z" fill="#424242"/>
<path d="M199.983 372.688C198.218 374.832 196.277 376.825 194.179 378.644V425.105H199.983V372.688Z" fill="#424242"/>
<path d="M218.699 276.9V425.106H224.513V329.226H221.974L218.699 276.9Z" fill="#424242"/>
<path d="M280.02 353.093V425.105H285.824V370.637C284.311 368.381 283.078 365.949 282.152 363.395C281.147 360.029 280.434 356.582 280.02 353.093Z" fill="#424242"/>
<path d="M292.284 378.175V425.095H298.098V397.8C297.012 392.311 296.245 386.763 295.803 381.184C294.691 380.317 293.498 379.307 292.284 378.175Z" fill="#424242"/>
<path d="M273.565 267.505C271.627 266.904 269.679 266.322 267.761 265.751V425.106H273.565V267.505Z" fill="#424242"/>
<path d="M261.305 329.226H255.491V425.106H261.305V329.226Z" fill="#424242"/>
<path d="M249.043 329.226H243.229V425.106H249.043V329.226Z" fill="#424242"/>
<path d="M295.799 381.184C291.127 377.543 285.058 371.556 282.151 363.396C277.633 350.737 274.307 282.816 273.614 267.516C271.196 266.781 268.769 266.047 266.382 265.343L267.402 329.226H222.012L218.044 265.669C215.627 266.414 213.189 267.179 210.802 267.934C210.853 280.837 210.853 341.027 207.222 358.296C204.437 371.556 192.84 380.501 185.802 384.816C184.096 398.554 180.856 412.058 176.143 425.075H306.193C300.537 411.052 297.033 396.255 295.799 381.184V381.184Z" stroke="#263238" stroke-width="1.02" stroke-linecap="round" stroke-linejoin="round"/>
<path d="M236.191 249.512C236.191 249.512 222.931 254.255 220.371 259.631C217.811 265.006 219.106 286.151 216.893 292.526C214.68 298.901 209.304 303.603 212.16 303.96C215.016 304.317 223.543 291.302 227.97 292.883C232.397 294.464 244.423 310.916 245.371 310.916C246.32 310.916 255.5 299.849 257.397 296.371C259.294 292.893 266.251 298.268 269.413 306.173C272.575 314.078 273.493 311.273 273.493 308.387C273.493 305.5 269.698 293.199 270.331 290.985C270.963 288.772 270.015 277.725 270.015 266.628C270.08 262.261 268.587 258.014 265.804 254.649C263.02 251.284 259.128 249.022 254.827 248.268C247.86 246.972 236.191 249.512 236.191 249.512Z" fill="white" stroke="#263238" stroke-width="1.02" stroke-linecap="round" stroke-linejoin="round"/>
<path d="M230.174 241.597V277.348C230.174 277.348 241.883 315.935 245.994 313.048C250.104 310.161 259.601 278.888 259.601 278.888V241.913C259.601 241.913 245.045 248.247 230.174 241.597Z" fill="white" stroke="#263238" stroke-width="1.02" stroke-linecap="round" stroke-linejoin="round"/>
<path d="M230.174 241.597V249.033C236.09 252.429 243.056 254.724 249.329 254.724C252.903 254.68 256.418 253.811 259.601 252.185V241.913C259.601 241.913 245.045 248.247 230.174 241.597Z" fill="#263238" stroke="#263238" stroke-width="1.02" stroke-linecap="round" stroke-linejoin="round"/>
<path d="M218.158 202.695C218.158 202.695 211.202 193.515 207.081 200.155C202.96 206.795 213.731 219.137 216.893 218.821C220.055 218.505 218.158 202.695 218.158 202.695Z" fill="white" stroke="#263238" stroke-width="1.02" stroke-linecap="round" stroke-linejoin="round"/>
<path d="M274.105 202.695C274.105 202.695 281.061 193.515 285.182 200.155C289.303 206.795 278.532 219.137 275.37 218.821C272.208 218.505 274.105 202.695 274.105 202.695Z" fill="white" stroke="#263238" stroke-width="1.02" stroke-linecap="round" stroke-linejoin="round"/>
<path d="M217.261 189.842C217.261 189.842 213.752 221.462 216.822 230.642C219.892 239.822 236.131 249.951 249.299 249.951C262.467 249.951 273.422 237.231 275.187 229.765C276.951 222.299 272.983 174.481 270.352 169.218C267.72 163.955 251.053 163.516 234.376 171.849C217.699 180.183 217.261 189.842 217.261 189.842Z" fill="white" stroke="#263238" stroke-width="1.02" stroke-linecap="round" stroke-linejoin="round"/>
<path d="M250.104 194.82C250.104 194.82 247.258 202.419 249.788 206.846C252.317 211.273 250.736 214.435 247.891 214.435C245.045 214.435 243.811 209.692 243.811 209.692" stroke="#263238" stroke-width="1.02" stroke-linecap="round" stroke-linejoin="round"/>
<path d="M233.978 217.556C233.978 217.556 247.238 226.736 258.968 217.556" stroke="#263238" stroke-width="1.02" stroke-linecap="round" stroke-linejoin="round"/>
<path d="M252.962 190.353C252.962 190.353 258.664 184.029 265.304 190.985" stroke="#263238" stroke-width="1.02" stroke-linecap="round" stroke-linejoin="round"/>
<path d="M239.988 189.72C239.988 189.72 234.296 183.712 227.33 189.088" stroke="#263238" stroke-width="1.02" stroke-linecap="round" stroke-linejoin="round"/>
<path d="M258.335 203.633C259.383 203.633 260.233 201.934 260.233 199.838C260.233 197.743 259.383 196.044 258.335 196.044C257.288 196.044 256.438 197.743 256.438 199.838C256.438 201.934 257.288 203.633 258.335 203.633Z" fill="#263238"/>
<path d="M234.611 203.633C235.659 203.633 236.508 201.934 236.508 199.838C236.508 197.743 235.659 196.044 234.611 196.044C233.563 196.044 232.714 197.743 232.714 199.838C232.714 201.934 233.563 203.633 234.611 203.633Z" fill="#263238"/>
<path d="M225.422 205.224C228.671 204.689 231.985 204.689 235.234 205.224" stroke="#263238" stroke-width="1.02" stroke-linecap="round" stroke-linejoin="round"/>
<path d="M257.705 205.54C260.84 204.962 264.055 204.962 267.191 205.54" stroke="#263238" stroke-width="1.02" stroke-linecap="round" stroke-linejoin="round"/>
<path d="M202.021 208.08C202.021 208.08 251.685 187.517 263.711 178.02C275.737 168.524 278.889 150.185 250.737 151.133C222.585 152.082 192.852 184.987 190.322 200.165C187.792 215.342 197.88 212.16 197.88 212.16" fill="#263238"/>
<path d="M269.789 151.98C258.31 165.964 244.406 177.767 228.744 186.823C202.489 202.123 185.781 204.969 185.781 204.969" stroke="#858585" stroke-width="1.02" stroke-linecap="round" stroke-linejoin="round"/>
<path d="M251.175 147.176C251.175 147.176 227.787 183.896 184.355 198.247" stroke="#858585" stroke-width="1.02" stroke-linecap="round" stroke-linejoin="round"/>
<path d="M202.021 208.08C202.021 208.08 251.685 187.517 263.711 178.02C275.737 168.524 278.889 150.185 250.737 151.133C222.585 152.082 192.852 184.987 190.322 200.165C187.792 215.342 197.88 212.16 197.88 212.16" stroke="#263238" stroke-width="1.02" stroke-linecap="round" stroke-linejoin="round"/>
<path d="M307.652 321.83C307.652 321.83 301.787 319.28 294.902 316.985C288.017 314.69 284.192 319.28 286.997 323.36C289.802 327.44 299.747 328.205 304.592 332.54C309.437 336.875 313.262 350.9 318.107 353.45C321.306 355.049 324.757 356.084 328.307 356.51V321.83H307.652Z" fill="white" stroke="#263238" stroke-width="1.02" stroke-linecap="round" stroke-linejoin="round"/>
<path d="M337.652 363.528H308.562L302.054 303.521H344.16L337.652 363.528Z" fill="#079FB7" stroke="#263238" stroke-width="1.02" stroke-linecap="round" stroke-linejoin="round"/>
<path d="M345.161 294.117H301.046L297.2 302.196H349.475L345.161 294.117Z" fill="white" stroke="#263238" stroke-width="1.02" stroke-linecap="round" stroke-linejoin="round"/>
<path d="M302.687 304.806H344.435L348.077 302.195H298.607L302.687 304.806Z" fill="white" stroke="#263238" stroke-width="1.02" stroke-linecap="round" stroke-linejoin="round"/>
<path d="M339.437 347.075L343.171 312.65H303.044L306.777 347.075H339.437Z" fill="white" stroke="#263238" stroke-width="1.02" stroke-linecap="round" stroke-linejoin="round"/>
<path d="M348.964 323.105C348.964 323.105 335.449 323.36 332.899 325.91C330.349 328.46 331.114 331.52 335.959 332.03C340.804 332.54 347.944 333.56 351.769 332.54C355.594 331.52 355.594 323.105 348.964 323.105Z" fill="white" stroke="#263238" stroke-width="1.02" stroke-linecap="round" stroke-linejoin="round"/>
<path d="M345.863 350.39C345.863 350.39 335.132 350.594 333.113 352.624C331.093 354.654 331.695 357.071 335.54 357.479C339.386 357.887 345.047 358.693 348.087 357.877C351.126 357.061 351.116 350.39 345.863 350.39Z" fill="white" stroke="#263238" stroke-width="1.02" stroke-linecap="round" stroke-linejoin="round"/>
<path d="M351.512 333.54C351.512 333.54 333.917 333.54 329.582 334.305C325.247 335.07 323.717 339.405 330.092 340.68C336.467 341.955 349.472 342.72 353.552 342.21C357.632 341.7 357.887 333.305 351.512 333.54Z" fill="white" stroke="#263238" stroke-width="1.02" stroke-linecap="round" stroke-linejoin="round"/>
<path d="M350.492 342.72C350.492 342.72 336.467 342.21 331.622 343.995C326.777 345.78 328.562 348.33 333.152 349.35C337.742 350.37 347.942 351.645 351.767 350.37C355.592 349.095 355.592 342.231 350.492 342.72Z" fill="white" stroke="#263238" stroke-width="1.02" stroke-linecap="round" stroke-linejoin="round"/>
<path d="M133.623 252.736C133.623 252.736 130.92 254.357 132.817 262.477L134.704 270.586L146.332 268.423C146.332 268.423 141.232 259.243 139.029 255.163C136.825 251.083 134.204 251.654 133.623 252.736Z" fill="white" stroke="#263238" stroke-width="1.02" stroke-linecap="round" stroke-linejoin="round"/>
<path d="M124.441 267.618C124.441 267.618 161.487 261.396 172.585 257.611C180.933 254.912 189.418 252.655 198.003 250.849C200.222 250.336 202.489 250.063 204.766 250.033C204.766 250.033 205.847 250.033 205.582 254.633C205.317 259.233 211.528 319.005 217.21 337.396C222.891 355.786 226.39 364.446 226.39 364.446C226.39 364.446 193.128 371.209 162.293 371.209C145.247 371.32 128.227 369.869 111.446 366.874C110.365 366.874 124.706 312.814 124.155 294.393C123.645 275.767 124.441 267.618 124.441 267.618Z" fill="#079FB7" stroke="#263238" stroke-width="1.02" stroke-linecap="round" stroke-linejoin="round"/>
<path d="M217.261 337.396C211.58 319.036 205.358 259.233 205.633 254.633C205.908 250.033 204.817 250.033 204.817 250.033C203.548 250.051 202.281 250.143 201.023 250.308C200.88 251.473 200.88 252.652 201.023 253.817C201.023 253.817 200.737 283.305 199.921 318.24C199.248 347.188 199.686 363.834 199.86 368.669C215.252 366.762 226.38 364.497 226.38 364.497C226.38 364.497 222.922 355.786 217.261 337.396Z" fill="#079FB7" stroke="#263238" stroke-width="1.02" stroke-linecap="round" stroke-linejoin="round"/>
<path d="M204.256 251.389V264.915C204.256 269.239 205.072 271.402 203.44 271.402C201.808 271.402 188.303 273.84 166.394 278.164C152.47 280.943 138.37 282.749 124.196 283.57C122.574 283.57 124.472 267.618 124.472 267.618C124.472 267.618 165.578 261.12 178.827 256.795C186.711 254.213 194.752 252.135 202.899 250.573" fill="#079FB7"/>
<path d="M204.256 251.389V264.915C204.256 269.239 205.072 271.402 203.44 271.402C201.808 271.402 188.303 273.84 166.394 278.164C152.47 280.943 138.37 282.749 124.196 283.57C122.574 283.57 124.472 267.618 124.472 267.618C124.472 267.618 165.578 261.12 178.827 256.795C186.711 254.213 194.752 252.135 202.899 250.573" stroke="#263238" stroke-width="1.02" stroke-linecap="round" stroke-linejoin="round"/>
<path d="M156.926 241.648C156.926 241.648 159.629 235.426 166.933 239.486C174.236 243.545 179.101 258.152 178.02 261.12C176.939 264.088 173.42 264.914 170.441 261.936C167.463 258.958 159.895 248.146 158.008 245.167C156.121 242.189 156.926 241.648 156.926 241.648Z" fill="white" stroke="#263238" stroke-width="1.02" stroke-linecap="round" stroke-linejoin="round"/>
<path d="M148.808 245.433C148.808 245.433 162.476 265.364 165.036 267.077C167.596 268.791 172.36 269.77 170.983 263.834C169.687 258.193 164.496 247.33 160.977 243.546C157.458 239.762 155.03 239.221 152.052 240.843C149.073 242.465 148.267 243.27 148.808 245.433Z" fill="white" stroke="#263238" stroke-width="1.02" stroke-linecap="round" stroke-linejoin="round"/>
<path d="M149.942 244.351C149.942 244.351 162.651 260.579 163.742 264.374C164.834 268.168 162.651 274.38 156.98 270.861C151.308 267.342 146.157 255.714 142.914 251.654C139.67 247.595 145.29 241.383 149.942 244.351Z" fill="white" stroke="#263238" stroke-width="1.02" stroke-linecap="round" stroke-linejoin="round"/>
<path d="M142.32 248.411C142.32 248.411 134.16 249.492 133.14 253.817C132.12 258.142 139.087 267.618 144.768 269.24C150.45 270.861 152.072 266.261 150.45 262.477C148.828 258.693 145.023 249.227 142.32 248.411Z" fill="white" stroke="#263238" stroke-width="1.02" stroke-linecap="round" stroke-linejoin="round"/>
<path d="M437.55 406.481H349.3L369.945 310.652H458.195L437.55 406.481Z" fill="#263238" stroke="#263238" stroke-width="1.02" stroke-linecap="round" stroke-linejoin="round"/>
<path d="M458.193 310.652H369.943C369.943 310.652 419.912 322.718 458.193 310.652Z" fill="#6B6B6B" stroke="#263238" stroke-width="1.02" stroke-linecap="round" stroke-linejoin="round"/>
<path d="M398.229 352.012L388.926 380.623L404.787 391.313L410.989 373.391L398.229 352.012Z" fill="#3B3B3B" stroke="#263238" stroke-width="1.02" stroke-linecap="round" stroke-linejoin="round"/>
<path d="M398.228 352.012H428.91L433.734 370.291L410.988 373.391L398.228 352.012Z" fill="#3B3B3B" stroke="#263238" stroke-width="1.02" stroke-linecap="round" stroke-linejoin="round"/>
<path d="M425.432 422.678C423.853 401.49 417.372 380.958 406.501 362.702L382.306 422.678H425.432Z" fill="#3B3B3B" stroke="#263238" stroke-width="1.02" stroke-linecap="round" stroke-linejoin="round"/>
<path d="M463.498 422.678C464.131 394.679 449.596 362.702 449.596 362.702H406.501C417.372 380.958 423.853 401.49 425.432 422.678H463.498Z" fill="#6B6B6B" stroke="#263238" stroke-width="1.02" stroke-linecap="round" stroke-linejoin="round"/>
<path d="M477.676 419.496H43.5434V430.44H477.676V419.496Z" fill="white" stroke="#263238" stroke-width="1.02" stroke-linecap="round" stroke-linejoin="round"/>
</svg>
